<svg width="20" height="20" viewBox="0 0 20 20" fill="none" xmlns="http://www.w3.org/2000/svg">
<path d="M19.1573 17.5027L14.7469 13.0922C15.8087 11.6786 16.3819 9.95797 16.38 8.19C16.38 3.67406 12.7059 0 8.19 0C3.67406 0 0 3.67406 0 8.19C0 12.7059 3.67406 16.38 8.19 16.38C9.95798 16.3819 11.6786 15.8087 13.0922 14.7469L17.5027 19.1573C17.7259 19.3569 18.0171 19.4634 18.3164 19.4551C18.6158 19.4467 18.9006 19.324 19.1123 19.1123C19.324 18.9005 19.4467 18.6158 19.4551 18.3164C19.4635 18.0171 19.3569 17.7259 19.1573 17.5027ZM2.34 8.19C2.34 7.03298 2.6831 5.90194 3.3259 4.93991C3.96871 3.97789 4.88235 3.22808 5.9513 2.7853C7.02025 2.34253 8.19649 2.22668 9.33128 2.45241C10.4661 2.67813 11.5084 3.23529 12.3266 4.05342C13.1447 4.87156 13.7019 5.91393 13.9276 7.04872C14.1533 8.18351 14.0375 9.35975 13.5947 10.4287C13.1519 11.4976 12.4021 12.4113 11.4401 13.0541C10.4781 13.6969 9.34702 14.04 8.19 14.04C6.63906 14.0381 5.15217 13.4212 4.05548 12.3245C2.9588 11.2278 2.34186 9.74094 2.34 8.19Z" fill="#575759"/>
</svg>
