<svg width="24" height="24" viewBox="0 0 24 24" fill="none" xmlns="http://www.w3.org/2000/svg">
<path d="M22.5 5.99554C22.5 5.19989 22.1839 4.43683 21.6213 3.87422C21.0587 3.31161 20.2957 2.99554 19.5 2.99554H18.75V2.26663C18.75 1.86304 18.4397 1.51663 18.0361 1.49647C17.9347 1.49159 17.8333 1.50734 17.7382 1.54278C17.6431 1.57822 17.5561 1.6326 17.4826 1.70264C17.4091 1.77268 17.3506 1.85691 17.3106 1.95023C17.2706 2.04355 17.25 2.14401 17.25 2.24554V2.99554H6.75V2.26663C6.75 1.86304 6.43969 1.51663 6.03609 1.49647C5.93469 1.49159 5.83334 1.50734 5.7382 1.54278C5.64307 1.57822 5.55611 1.6326 5.48261 1.70264C5.40911 1.77268 5.3506 1.85691 5.31062 1.95023C5.27063 2.04355 5.25001 2.14401 5.25 2.24554V2.99554H4.5C3.70435 2.99554 2.94129 3.31161 2.37868 3.87422C1.81607 4.43683 1.5 5.19989 1.5 5.99554V6.55804C1.5 6.60777 1.51975 6.65546 1.55492 6.69062C1.59008 6.72578 1.63777 6.74554 1.6875 6.74554H22.3125C22.3622 6.74554 22.4099 6.72578 22.4451 6.69062C22.4802 6.65546 22.5 6.60777 22.5 6.55804V5.99554ZM1.5 19.4955C1.5 20.2912 1.81607 21.0542 2.37868 21.6169C2.94129 22.1795 3.70435 22.4955 4.5 22.4955H19.5C20.2957 22.4955 21.0587 22.1795 21.6213 21.6169C22.1839 21.0542 22.5 20.2912 22.5 19.4955V8.38616C22.5 8.34887 22.4852 8.3131 22.4588 8.28673C22.4324 8.26035 22.3967 8.24554 22.3594 8.24554H1.64063C1.60333 8.24554 1.56756 8.26035 1.54119 8.28673C1.51482 8.3131 1.5 8.34887 1.5 8.38616V19.4955ZM17.625 9.74554C17.8475 9.74554 18.065 9.81152 18.25 9.93513C18.435 10.0588 18.5792 10.2345 18.6644 10.44C18.7495 10.6456 18.7718 10.8718 18.7284 11.09C18.685 11.3082 18.5778 11.5087 18.4205 11.666C18.2632 11.8234 18.0627 11.9305 17.8445 11.9739C17.6262 12.0173 17.4001 11.9951 17.1945 11.9099C16.9889 11.8248 16.8132 11.6806 16.6896 11.4956C16.566 11.3105 16.5 11.093 16.5 10.8705C16.5 10.5722 16.6185 10.286 16.8295 10.075C17.0405 9.86406 17.3266 9.74554 17.625 9.74554ZM17.625 13.4955C17.8475 13.4955 18.065 13.5615 18.25 13.6851C18.435 13.8088 18.5792 13.9845 18.6644 14.19C18.7495 14.3956 18.7718 14.6218 18.7284 14.84C18.685 15.0582 18.5778 15.2587 18.4205 15.416C18.2632 15.5734 18.0627 15.6805 17.8445 15.7239C17.6262 15.7673 17.4001 15.7451 17.1945 15.6599C16.9889 15.5748 16.8132 15.4306 16.6896 15.2456C16.566 15.0605 16.5 14.843 16.5 14.6205C16.5 14.3222 16.6185 14.036 16.8295 13.825C17.0405 13.6141 17.3266 13.4955 17.625 13.4955ZM13.875 9.74554C14.0975 9.74554 14.315 9.81152 14.5 9.93513C14.685 10.0588 14.8292 10.2345 14.9144 10.44C14.9995 10.6456 15.0218 10.8718 14.9784 11.09C14.935 11.3082 14.8278 11.5087 14.6705 11.666C14.5132 11.8234 14.3127 11.9305 14.0945 11.9739C13.8762 12.0173 13.65 11.9951 13.4445 11.9099C13.2389 11.8248 13.0632 11.6806 12.9396 11.4956C12.816 11.3105 12.75 11.093 12.75 10.8705C12.75 10.5722 12.8685 10.286 13.0795 10.075C13.2905 9.86406 13.5766 9.74554 13.875 9.74554ZM13.875 13.4955C14.0975 13.4955 14.315 13.5615 14.5 13.6851C14.685 13.8088 14.8292 13.9845 14.9144 14.19C14.9995 14.3956 15.0218 14.6218 14.9784 14.84C14.935 15.0582 14.8278 15.2587 14.6705 15.416C14.5132 15.5734 14.3127 15.6805 14.0945 15.7239C13.8762 15.7673 13.65 15.7451 13.4445 15.6599C13.2389 15.5748 13.0632 15.4306 12.9396 15.2456C12.816 15.0605 12.75 14.843 12.75 14.6205C12.75 14.3222 12.8685 14.036 13.0795 13.825C13.2905 13.6141 13.5766 13.4955 13.875 13.4955ZM13.875 17.2455C14.0975 17.2455 14.315 17.3115 14.5 17.4351C14.685 17.5588 14.8292 17.7345 14.9144 17.94C14.9995 18.1456 15.0218 18.3718 14.9784 18.59C14.935 18.8082 14.8278 19.0087 14.6705 19.166C14.5132 19.3234 14.3127 19.4305 14.0945 19.4739C13.8762 19.5173 13.65 19.4951 13.4445 19.4099C13.2389 19.3248 13.0632 19.1806 12.9396 18.9956C12.816 18.8105 12.75 18.593 12.75 18.3705C12.75 18.0722 12.8685 17.786 13.0795 17.575C13.2905 17.3641 13.5766 17.2455 13.875 17.2455ZM10.125 13.4955C10.3475 13.4955 10.565 13.5615 10.75 13.6851C10.935 13.8088 11.0792 13.9845 11.1644 14.19C11.2495 14.3956 11.2718 14.6218 11.2284 14.84C11.185 15.0582 11.0778 15.2587 10.9205 15.416C10.7632 15.5734 10.5627 15.6805 10.3445 15.7239C10.1262 15.7673 9.90005 15.7451 9.69448 15.6599C9.48891 15.5748 9.31321 15.4306 9.1896 15.2456C9.06598 15.0605 9 14.843 9 14.6205C9 14.3222 9.11853 14.036 9.32951 13.825C9.54048 13.6141 9.82663 13.4955 10.125 13.4955ZM10.125 17.2455C10.3475 17.2455 10.565 17.3115 10.75 17.4351C10.935 17.5588 11.0792 17.7345 11.1644 17.94C11.2495 18.1456 11.2718 18.3718 11.2284 18.59C11.185 18.8082 11.0778 19.0087 10.9205 19.166C10.7632 19.3234 10.5627 19.4305 10.3445 19.4739C10.1262 19.5173 9.90005 19.4951 9.69448 19.4099C9.48891 19.3248 9.31321 19.1806 9.1896 18.9956C9.06598 18.8105 9 18.593 9 18.3705C9 18.0722 9.11853 17.786 9.32951 17.575C9.54048 17.3641 9.82663 17.2455 10.125 17.2455ZM6.375 13.4955C6.5975 13.4955 6.81501 13.5615 7.00002 13.6851C7.18502 13.8088 7.32922 13.9845 7.41436 14.19C7.49951 14.3956 7.52179 14.6218 7.47838 14.84C7.43498 15.0582 7.32783 15.2587 7.1705 15.416C7.01316 15.5734 6.81271 15.6805 6.59448 15.7239C6.37625 15.7673 6.15005 15.7451 5.94448 15.6599C5.73891 15.5748 5.56321 15.4306 5.4396 15.2456C5.31598 15.0605 5.25 14.843 5.25 14.6205C5.25 14.3222 5.36853 14.036 5.5795 13.825C5.79048 13.6141 6.07663 13.4955 6.375 13.4955ZM6.375 17.2455C6.5975 17.2455 6.81501 17.3115 7.00002 17.4351C7.18502 17.5588 7.32922 17.7345 7.41436 17.94C7.49951 18.1456 7.52179 18.3718 7.47838 18.59C7.43498 18.8082 7.32783 19.0087 7.1705 19.166C7.01316 19.3234 6.81271 19.4305 6.59448 19.4739C6.37625 19.5173 6.15005 19.4951 5.94448 19.4099C5.73891 19.3248 5.56321 19.1806 5.4396 18.9956C5.31598 18.8105 5.25 18.593 5.25 18.3705C5.25 18.0722 5.36853 17.786 5.5795 17.575C5.79048 17.3641 6.07663 17.2455 6.375 17.2455Z" fill="#666666"/>
</svg>
