<svg width="24" height="24" viewBox="0 0 24 24" fill="none" xmlns="http://www.w3.org/2000/svg">
<path d="M12.2604 4.74709C12.1906 4.68033 12.0978 4.64307 12.0012 4.64307C11.9046 4.64307 11.8118 4.68033 11.742 4.74709L3.1123 12.991C3.07566 13.0261 3.0465 13.0682 3.0266 13.1148C3.0067 13.1615 2.99647 13.2117 2.99652 13.2624L2.99512 20.9996C2.99512 21.3974 3.15315 21.7789 3.43446 22.0602C3.71576 22.3416 4.09729 22.4996 4.49512 22.4996H8.99981C9.19872 22.4996 9.38948 22.4206 9.53014 22.2799C9.67079 22.1393 9.74981 21.9485 9.74981 21.7496V15.3746C9.74981 15.2751 9.78931 15.1797 9.85964 15.1094C9.92997 15.0391 10.0254 14.9996 10.1248 14.9996H13.8748C13.9743 14.9996 14.0696 15.0391 14.14 15.1094C14.2103 15.1797 14.2498 15.2751 14.2498 15.3746V21.7496C14.2498 21.9485 14.3288 22.1393 14.4695 22.2799C14.6101 22.4206 14.8009 22.4996 14.9998 22.4996H19.5026C19.9004 22.4996 20.282 22.3416 20.5633 22.0602C20.8446 21.7789 21.0026 21.3974 21.0026 20.9996V13.2624C21.0027 13.2117 20.9924 13.1615 20.9725 13.1148C20.9526 13.0682 20.9235 13.0261 20.8868 12.991L12.2604 4.74709Z" fill="#575759"/>
<path d="M23.0114 11.446L19.5052 8.09162V3.00147C19.5052 2.80255 19.4262 2.61179 19.2855 2.47113C19.1449 2.33048 18.9541 2.25147 18.7552 2.25147H16.5052C16.3063 2.25147 16.1155 2.33048 15.9748 2.47113C15.8342 2.61179 15.7552 2.80255 15.7552 3.00147V4.50147L13.0402 1.90553C12.7861 1.64865 12.4083 1.50146 12 1.50146C11.5931 1.50146 11.2163 1.64865 10.9622 1.906L0.991893 11.4451C0.70033 11.7263 0.663768 12.189 0.92908 12.4937C0.995704 12.5706 1.07728 12.6331 1.16885 12.6775C1.26041 12.7219 1.36005 12.7471 1.46169 12.7518C1.56334 12.7564 1.66487 12.7404 1.7601 12.7045C1.85533 12.6687 1.94228 12.6138 2.01564 12.5433L11.7422 3.24897C11.812 3.18221 11.9049 3.14495 12.0014 3.14495C12.098 3.14495 12.1909 3.18221 12.2606 3.24897L21.9881 12.5433C22.1314 12.6808 22.3234 12.7557 22.5219 12.7519C22.7204 12.748 22.9092 12.6656 23.0471 12.5227C23.3349 12.2246 23.311 11.7324 23.0114 11.446Z" fill="#575759"/>
</svg>
