<svg width="58" height="32" viewBox="0 0 58 32" fill="none" xmlns="http://www.w3.org/2000/svg">
<g clip-path="url(#clip0_490_9357)">
<path d="M53.4393 32H4.56068C2.04139 32 0 29.9398 0 27.3974V4.60262C0 2.06017 2.04139 0 4.56068 0H53.4393C55.9586 0 58 2.06017 58 4.60262V27.3974C58 29.9398 55.9567 32 53.4393 32Z" fill="#191A1D"/>
<path d="M52.2632 20.182C52.2406 21.1314 51.9678 22.0181 51.5069 22.7776C50.9801 23.651 50.2087 24.3555 49.2867 24.7979C48.7204 25.0694 48.0976 25.2403 47.441 25.2878C47.4166 25.2897 47.394 25.2916 47.3695 25.2916C47.266 25.2992 47.1607 25.303 47.0534 25.3011C46.9575 25.3011 46.8615 25.2992 46.7675 25.2916C46.7336 25.2897 46.7035 25.2878 46.6696 25.2859C46.013 25.2384 45.3902 25.0675 44.822 24.796C43.0628 23.953 41.8437 22.1415 41.8437 20.0453C41.8437 19.9295 41.8493 19.8155 41.8568 19.7035L41.4373 6.76337C41.4373 6.76337 43.7082 6.76337 43.7082 6.76147H43.8568L44.2538 15.6116C44.2613 15.7256 44.267 15.8414 44.2745 15.9553C44.2914 16.2458 44.3084 16.5364 44.3272 16.825C44.3498 17.2104 44.3742 17.594 44.3968 17.9794C44.4213 18.3782 44.4457 18.7769 44.4702 19.1756C44.4909 19.5079 44.5116 19.8402 44.5323 20.1725C44.553 20.4896 44.5605 20.8029 44.6508 21.1105C44.7223 21.3516 44.8277 21.5814 44.9612 21.794C45.2284 22.2137 45.6122 22.5517 46.06 22.7643C46.2538 22.8555 46.4589 22.9238 46.6677 22.9656C46.7016 22.9713 46.7317 22.9789 46.7656 22.9827C46.8295 22.9922 46.8954 22.9998 46.9612 23.0055C46.9612 23.0055 46.9631 23.0055 46.965 23.0055C46.9951 23.0074 47.0252 23.0112 47.0553 23.0131C47.1362 23.0093 47.2171 23.0017 47.298 22.9884C47.3225 22.9865 47.3469 22.9827 47.3695 22.9789C47.394 22.9751 47.4184 22.9713 47.441 22.9656C47.727 22.9086 47.9979 22.8042 48.2444 22.6618C48.2501 22.6599 48.2557 22.6561 48.2613 22.6523C48.3291 22.601 48.4137 22.565 48.4852 22.5194C48.5661 22.4662 48.6452 22.4112 48.7223 22.3523C48.8954 22.2194 49.0572 22.0732 49.2077 21.9137C49.5934 21.5073 49.902 21.0307 50.1503 20.5295C50.2557 20.3168 50.3648 20.125 50.5342 19.9579C50.6602 19.8326 50.807 19.7244 50.9725 19.6579C51.4072 19.4851 51.8248 19.7035 52.1296 20.0244C52.1786 20.0776 52.2237 20.1288 52.2632 20.182Z" fill="white"/>
<path d="M52.6714 6.76521L52.2612 19.4414C52.2594 19.4395 52.2556 19.4357 52.2556 19.4319L52.2499 19.6237C52.0486 19.2667 51.7495 19.0009 51.3976 18.8851C51.2716 18.8433 51.1399 18.8205 51.0025 18.8205C50.3873 18.8205 49.6817 19.8857 49.5858 20.0319C49.5801 20.0414 49.5764 20.049 49.5764 20.049C49.2603 20.5408 48.9818 20.9623 48.8934 21.0573C48.8953 21.0592 48.8934 21.0592 48.8915 21.0592C48.519 21.4617 48.107 21.6744 47.7476 21.6573H47.742C47.7213 21.6554 47.7024 21.6554 47.6817 21.6516C47.661 21.6497 47.6385 21.6459 47.6178 21.6421C47.5971 21.6383 47.5783 21.6345 47.5595 21.6288C47.5425 21.625 47.5256 21.6193 47.5105 21.6155C47.2942 21.5472 47.0797 21.4009 46.8765 21.1921C46.3704 20.6756 45.9414 19.7661 45.7871 18.6648L45.8661 18.6477C46.058 19.0655 46.2462 19.4224 46.4306 19.7148C46.8671 20.4117 47.2735 20.744 47.6516 20.7136C48.1314 20.6737 48.5623 20.0452 48.948 18.8281C49.0082 18.6382 49.0665 18.4332 49.1248 18.2167C49.1474 18.1294 49.17 18.0401 49.1926 17.9471C49.4673 16.8287 49.7156 15.3667 49.9357 13.5685L50.2443 6.70825L52.6639 6.71015L52.662 6.76332H52.6714V6.76521Z" fill="white"/>
<path d="M46.9668 23.0072L47.2434 22.9939C47.0872 23.0129 46.9875 23.0072 46.9668 23.0072Z" fill="white"/>
<path d="M47.2434 22.9921C47.4748 22.9636 47.8342 22.8838 48.2444 22.6636C47.9979 22.806 47.7288 22.9085 47.441 22.9674C47.4184 22.9731 47.3939 22.9769 47.3695 22.9807C47.3469 22.9845 47.3224 22.9883 47.298 22.9902L47.2434 22.9921Z" fill="white"/>
<path d="M39.285 15.2414V15.2319L39.5596 6.75203H39.5521V6.69887H39.1551L37.285 6.69507H37.125L37.0818 7.67104L36.9105 11.4781C36.792 11.404 36.6716 11.3395 36.5474 11.2787C36.1072 11.0698 35.6274 10.935 35.1194 10.9008C35.093 10.8989 35.0686 10.8971 35.0422 10.8952C34.9689 10.8895 34.8955 10.8876 34.8221 10.8876C34.7375 10.8876 34.6584 10.8895 34.5775 10.8971C34.5587 10.8971 34.5399 10.8989 34.5211 10.8989C34.0131 10.9369 33.5314 11.0679 33.0949 11.2787C32.9105 11.3679 32.7318 11.4705 32.5644 11.5863L32.348 6.73494H32.2332C32.2332 6.73684 30.4759 6.73684 30.4759 6.73684V6.75013C30.1034 6.75013 29.8118 6.75013 29.8118 6.75013L30.1373 16.7567L29.8626 25.2499H29.872L29.8701 25.303H32.3536L32.5719 20.4175C32.7374 20.5314 32.9124 20.6321 33.093 20.7194C33.5333 20.9302 34.0131 21.0631 34.5211 21.0992C34.5474 21.1011 34.5719 21.103 34.5982 21.103C34.6716 21.1086 34.745 21.1105 34.8202 21.1105C34.903 21.1124 34.982 21.1086 35.0629 21.103C35.0818 21.103 35.1006 21.1011 35.1194 21.0992C35.6274 21.0631 36.109 20.9302 36.5455 20.7194C36.6904 20.6491 36.8334 20.5713 36.9689 20.4821L36.9783 20.6776L37.1363 24.2492L37.1815 25.2518H37.3282C37.3282 25.2499 38.4966 25.2499 39.1608 25.2499C39.4242 25.2499 39.6086 25.2499 39.6086 25.2499L39.285 15.2414ZM36.4816 18.4864C36.3649 18.608 36.2407 18.7238 36.1072 18.8263C36.047 18.8719 35.9867 18.9156 35.9247 18.9554C35.8682 18.9915 35.8024 19.0181 35.7516 19.0599C35.7478 19.0618 35.7422 19.0637 35.7384 19.0656C35.5484 19.1776 35.3414 19.2554 35.1194 19.301C35.1006 19.3048 35.0818 19.3086 35.0629 19.3105C35.046 19.3143 35.0272 19.3181 35.0084 19.32C34.9463 19.3295 34.8842 19.3352 34.8221 19.339C34.7977 19.3371 34.7732 19.3333 34.7506 19.3314C34.7487 19.3314 34.7487 19.3314 34.7487 19.3314C34.6961 19.3276 34.6453 19.3219 34.5982 19.3143C34.5719 19.3105 34.5474 19.3048 34.5211 19.301C34.3593 19.2687 34.1993 19.2156 34.0507 19.1453C33.7045 18.982 33.4091 18.7181 33.2022 18.3915C33.0968 18.2301 33.0178 18.0497 32.9613 17.8617C32.9482 17.8143 32.9369 17.7668 32.9275 17.7212C33.0046 17.3054 33.0836 16.9276 33.1664 16.5934C33.1852 16.5212 33.2022 16.4529 33.221 16.3845C33.2661 16.2155 33.3113 16.056 33.3565 15.9098C33.6537 14.968 33.9867 14.48 34.3593 14.4497C34.6509 14.425 34.9651 14.6832 35.3038 15.2244C35.4449 15.4503 35.5898 15.7256 35.7384 16.0503L35.8005 16.0389C35.6801 15.1845 35.3508 14.4781 34.9576 14.0794C34.8014 13.918 34.634 13.8041 34.4665 13.7509C34.4552 13.7471 34.4421 13.7433 34.4289 13.7395C34.4138 13.7357 34.3988 13.7338 34.3837 13.73C34.3668 13.7281 34.3499 13.7243 34.3329 13.7224C34.3179 13.7186 34.3028 13.7186 34.2859 13.7167H34.2821C34.0037 13.7034 33.6857 13.8686 33.3978 14.18C33.3978 14.1819 33.3978 14.1819 33.3978 14.1819C33.3282 14.256 33.1137 14.5826 32.8692 14.9642C32.8692 14.9642 32.8654 14.9699 32.8616 14.9775C32.8447 15.0041 32.8033 15.0649 32.745 15.1446C32.7318 14.9433 32.7205 14.7421 32.7073 14.5389C32.6998 14.4022 32.6904 14.2636 32.6829 14.125C32.8202 13.9066 32.9764 13.7015 33.1533 13.5136C33.2699 13.392 33.3941 13.2781 33.5277 13.1737C33.5879 13.1281 33.6481 13.0844 33.7102 13.0465C33.7666 13.0104 33.8325 12.9819 33.8833 12.942C33.887 12.9382 33.8927 12.9363 33.8964 12.9344C34.0865 12.8243 34.2953 12.7446 34.5154 12.699C34.5343 12.6952 34.5531 12.6933 34.5719 12.6895C34.5888 12.6876 34.6076 12.6838 34.6264 12.6819C34.6885 12.6724 34.7506 12.6648 34.8146 12.6629C34.8259 12.6629 34.8372 12.6648 34.8485 12.6667C34.8654 12.6667 34.8786 12.6686 34.8842 12.6686C34.8861 12.6686 34.8861 12.6686 34.8861 12.6686C34.9388 12.6724 34.9896 12.6781 35.0366 12.6876C35.0629 12.6914 35.0874 12.6952 35.1137 12.7009C35.2756 12.7332 35.4355 12.7863 35.5841 12.8566C35.9303 13.0199 36.2257 13.2838 36.4327 13.6085C36.538 13.7718 36.617 13.9522 36.6735 14.1383C36.6866 14.1857 36.6979 14.2332 36.7073 14.2788C36.7262 14.18 36.7431 14.0794 36.7619 13.975C36.7469 14.0927 36.7318 14.2085 36.7168 14.3224C36.713 14.3072 36.7111 14.294 36.7073 14.2788C36.6302 14.6946 36.5512 15.0725 36.4684 15.4085C36.4496 15.4807 36.4327 15.549 36.4157 15.6155C36.3687 15.7845 36.3235 15.944 36.2784 16.0902C35.9811 17.0339 35.6481 17.52 35.2774 17.5522C34.9839 17.575 34.6697 17.3168 34.3329 16.7775C34.1899 16.5516 34.0451 16.2744 33.8964 15.9497L33.8343 15.963C33.9548 16.8174 34.284 17.5219 34.6772 17.9225C34.8334 18.0839 35.0009 18.1959 35.1683 18.251C35.1796 18.2529 35.1928 18.2567 35.2059 18.2605C35.221 18.2643 35.236 18.2681 35.2511 18.27C35.268 18.2738 35.285 18.2757 35.3019 18.2776C35.3188 18.2814 35.332 18.2833 35.3489 18.2833H35.3527C35.6311 18.2966 35.9491 18.1314 36.237 17.82V17.8181C36.3066 17.7459 36.5211 17.4193 36.7657 17.0358C36.7657 17.0358 36.7694 17.032 36.7732 17.0244C36.7807 17.013 36.792 16.9959 36.8071 16.9731L36.8541 18.0212C36.7431 18.1864 36.617 18.3421 36.4816 18.4864Z" fill="white"/>
<path d="M36.7657 13.9749C36.7507 14.0926 36.7356 14.2084 36.7206 14.3223C36.7168 14.3071 36.7149 14.2938 36.7112 14.2787C36.73 14.1799 36.7469 14.0793 36.7657 13.9749Z" fill="white"/>
<path d="M39.1609 25.2498V25.2611C39.1609 25.2611 37.4055 25.2611 37.4055 25.263H37.2888V25.2517H37.3264C37.3264 25.2498 38.4967 25.2498 39.1609 25.2498Z" fill="white"/>
<path d="M34.8861 12.6686L34.6716 12.68C34.7525 12.6705 34.8127 12.6667 34.8504 12.6667C34.8673 12.6667 34.8805 12.6686 34.8861 12.6686Z" fill="white"/>
<path d="M34.6717 12.6799C34.493 12.7008 34.2145 12.7654 33.8984 12.9344C34.0885 12.8242 34.2973 12.7445 34.5174 12.6989C34.5363 12.6951 34.5551 12.6932 34.5739 12.6894C34.5908 12.6875 34.6096 12.6837 34.6284 12.6818L34.6717 12.6799Z" fill="white"/>
<path d="M36.7657 13.9749C36.7507 14.0926 36.7356 14.2084 36.7206 14.3223C36.7168 14.3071 36.7149 14.2938 36.7112 14.2787C36.73 14.1799 36.7469 14.0793 36.7657 13.9749Z" fill="white"/>
<path d="M39.1551 6.69697V6.69887L37.2849 6.69507L39.1551 6.69697Z" fill="white"/>
<path d="M34.7488 19.3315L34.9633 19.3201C34.8429 19.3353 34.7657 19.3315 34.7488 19.3315Z" fill="white"/>
<path d="M35.7367 19.0637C35.5466 19.1757 35.3397 19.2536 35.1177 19.2992C35.0988 19.303 35.08 19.3068 35.0612 19.3087C35.0443 19.3125 35.0255 19.3163 35.0067 19.3182L34.9634 19.3201C35.1421 19.2973 35.4206 19.2365 35.7367 19.0637Z" fill="white"/>
<path d="M16.1504 20.1669C16.1278 21.1162 15.855 22.003 15.3941 22.7625C14.8673 23.6359 14.0959 24.3404 13.1739 24.7828C12.6076 25.0543 11.9849 25.2252 11.3282 25.2727C11.3038 25.2746 11.2812 25.2764 11.2567 25.2764C11.1532 25.284 11.0479 25.2878 10.9406 25.2859C10.8447 25.2859 10.7487 25.284 10.6547 25.2764C10.6208 25.2746 10.5907 25.2727 10.5568 25.2708C9.90019 25.2233 9.27743 25.0524 8.70922 24.7809C6.95005 23.9378 5.73086 22.1264 5.73086 20.0301C5.73086 19.9143 5.7365 19.8004 5.74403 19.6884L5.32446 6.74824C5.32446 6.74824 7.59539 6.74824 7.59539 6.74634H7.74403L8.14102 15.5965C8.14855 15.7104 8.15419 15.8263 8.16172 15.9402C8.17865 16.2307 8.19558 16.5212 8.2144 16.8098C8.23697 17.1953 8.26143 17.5788 8.28401 17.9643C8.30847 18.363 8.33293 18.7618 8.35739 19.1605C8.37808 19.4928 8.39878 19.8251 8.41948 20.1574C8.44017 20.4745 8.4477 20.7878 8.53801 21.0954C8.60951 21.3365 8.71487 21.5663 8.84845 21.7789C9.11562 22.1985 9.49944 22.5365 9.94723 22.7492C10.141 22.8403 10.3461 22.9087 10.5549 22.9505C10.5888 22.9562 10.6189 22.9637 10.6528 22.9675C10.7167 22.977 10.7826 22.9846 10.8485 22.9903C10.8485 22.9903 10.8503 22.9903 10.8522 22.9903C10.8823 22.9922 10.9124 22.996 10.9425 22.9979C11.0234 22.9941 11.1043 22.9865 11.1852 22.9732C11.2097 22.9713 11.2342 22.9675 11.2567 22.9637C11.2812 22.9599 11.3056 22.9562 11.3282 22.9505C11.6142 22.8935 11.8851 22.7891 12.1316 22.6467C12.1373 22.6448 12.1429 22.641 12.1485 22.6372C12.2163 22.5859 12.3009 22.5498 12.3724 22.5042C12.4533 22.4511 12.5324 22.396 12.6095 22.3372C12.7826 22.2042 12.9444 22.058 13.0949 21.8985C13.4806 21.4922 13.7892 21.0156 14.0375 20.5143C14.1429 20.3017 14.252 20.1099 14.4214 19.9428C14.5474 19.8175 14.6942 19.7093 14.8597 19.6428C15.2944 19.47 15.712 19.6884 16.0168 20.0093C16.0658 20.0624 16.1109 20.1137 16.1504 20.1669Z" fill="white"/>
<path d="M16.5606 6.75008L16.1504 19.4263C16.1485 19.4244 16.1448 19.4206 16.1448 19.4168L16.1391 19.6086C15.9378 19.2516 15.6386 18.9858 15.2868 18.8699C15.1607 18.8282 15.029 18.8054 14.8917 18.8054C14.2765 18.8054 13.5709 19.8706 13.475 20.0168C13.4693 20.0263 13.4655 20.0339 13.4655 20.0339C13.1495 20.5257 12.871 20.9472 12.7826 21.0421C12.7845 21.044 12.7826 21.044 12.7807 21.044C12.4082 21.4466 11.9961 21.6592 11.6368 21.6421H11.6311C11.6104 21.6402 11.5916 21.6402 11.5709 21.6364C11.5502 21.6346 11.5276 21.6308 11.5069 21.627C11.4862 21.6232 11.4674 21.6194 11.4486 21.6137C11.4317 21.6099 11.4147 21.6042 11.3997 21.6004C11.1833 21.532 10.9688 21.3858 10.7656 21.1769C10.2595 20.6605 9.83055 19.751 9.67627 18.6497L9.75529 18.6326C9.9472 19.0503 10.1353 19.4073 10.3197 19.6997C10.7562 20.3966 11.1626 20.7288 11.5408 20.6985C12.0206 20.6586 12.4514 20.0301 12.8371 18.813C12.8973 18.6231 12.9557 18.418 13.014 18.2016C13.0366 18.1142 13.0591 18.025 13.0817 17.9319C13.3564 16.8136 13.6048 15.3515 13.8249 13.5534L14.1335 6.69312L16.553 6.69501L16.5512 6.74818H16.5606V6.75008Z" fill="white"/>
<path d="M10.854 22.9921L11.1306 22.9788C10.9744 22.9977 10.8747 22.9939 10.854 22.9921Z" fill="white"/>
<path d="M11.1306 22.9789C11.362 22.9504 11.7214 22.8706 12.1316 22.6504C11.8851 22.7928 11.616 22.8953 11.3282 22.9542C11.3056 22.9599 11.2811 22.9637 11.2567 22.9675C11.2341 22.9713 11.2096 22.9751 11.1852 22.977L11.1306 22.9789Z" fill="white"/>
<path d="M28.1447 25.2972L25.3244 25.3048L21.791 17.5996L21.6066 17.197C21.6047 17.2084 21.6047 17.2217 21.6029 17.235C21.3997 19.561 21.0046 24.3098 21.0046 24.3098L20.9613 25.2877H18.5267L18.5285 25.2326H18.5191L18.8841 15.9932L18.4702 6.70063C18.4702 6.70063 20.7543 6.70063 20.7543 6.69873H20.903C20.903 6.69873 21.4617 13.0615 21.6518 15.2584L23.6744 11.6033L25.522 6.77468L27.7703 6.76139L25.4222 12.5318L23.2134 16.1869L28.1447 25.2972Z" fill="white"/>
</g>
<defs>
<clipPath id="clip0_490_9357">
<rect width="58" height="32" fill="white"/>
</clipPath>
</defs>
</svg>
