<svg width="216" height="233" viewBox="0 0 216 233" fill="none" xmlns="http://www.w3.org/2000/svg">
<g filter="url(#filter0_d_1491_10176)">
<path d="M107.986 224C165.416 224 211.973 177.514 211.973 120.17C211.973 62.8255 165.416 16.3389 107.986 16.3389C50.5563 16.3389 4 62.8255 4 120.17C4 177.514 50.5563 224 107.986 224Z" fill="#FEC530"/>
<g clip-path="url(#clip0_1491_10176)">
<path d="M107.987 118.489C126.467 118.489 141.449 103.53 141.449 85.0767C141.449 66.6237 126.467 51.6646 107.987 51.6646C89.5059 51.6646 74.5244 66.6237 74.5244 85.0767C74.5244 103.53 89.5059 118.489 107.987 118.489Z" fill="#C92A3C"/>
<path d="M123.285 187.41C122.195 187.682 121.049 187.927 119.904 188.145C120.531 188.036 121.158 187.9 121.758 187.736C122.276 187.655 122.767 187.546 123.285 187.41Z" fill="#C92A3C"/>
<path d="M110.004 189.316C109.677 189.343 109.323 189.37 108.995 189.37C108.177 189.398 107.55 189.398 107.059 189.398H106.705L110.004 189.316Z" fill="#C92A3C"/>
<path d="M113.713 189.016C114.095 188.962 114.45 188.934 114.804 188.88C114.122 188.962 113.441 189.071 112.759 189.152C112.568 189.179 112.404 189.179 112.213 189.179C112.077 189.179 111.913 189.207 111.777 189.234C111.613 189.234 111.45 189.234 111.286 189.261C111.123 189.261 110.959 189.288 110.795 189.288C110.55 189.316 110.304 189.316 110.032 189.316C110.741 189.288 111.532 189.234 112.377 189.152C112.513 189.152 112.623 189.152 112.759 189.125C113.086 189.098 113.413 189.07 113.713 189.016Z" fill="#C92A3C"/>
<path d="M123.286 187.41C122.195 187.682 121.049 187.927 119.904 188.145C119.195 188.281 118.459 188.417 117.695 188.526C117.286 188.608 116.85 188.662 116.44 188.717C116.004 188.771 115.595 188.826 115.159 188.853C115.05 188.88 114.913 188.88 114.804 188.88C115.022 188.853 115.241 188.826 115.459 188.798C117.395 188.553 119.522 188.227 121.786 187.709C122.277 187.655 122.767 187.546 123.286 187.41Z" fill="#C92A3C"/>
<path d="M102.45 136.488C102.314 136.488 102.232 136.516 102.096 136.543C102.205 136.488 102.314 136.488 102.45 136.488Z" fill="#C92A3C"/>
<path d="M31.2718 190.678C31.4354 190.868 31.599 191.059 31.7899 191.25H31.1899C31.1899 191.25 31.2172 191.059 31.2718 190.678Z" fill="#C92A3C"/>
<path d="M114.805 188.88C115.786 188.771 116.768 188.663 117.695 188.526C117.286 188.608 116.85 188.663 116.441 188.717C116.005 188.771 115.596 188.826 115.159 188.853C115.05 188.853 114.914 188.88 114.805 188.88Z" fill="#C92A3C"/>
<path d="M113.714 189.017C114.096 188.962 114.45 188.935 114.805 188.88C114.123 188.962 113.441 189.071 112.759 189.153C112.568 189.18 112.405 189.18 112.214 189.18C112.268 189.18 112.323 189.18 112.378 189.153C112.514 189.153 112.623 189.153 112.759 189.125C113.087 189.098 113.414 189.071 113.714 189.017Z" fill="#C92A3C"/>
<path d="M184.019 190.841C183.91 190.977 183.829 191.113 183.72 191.249H183.638C183.774 191.113 183.883 190.977 184.019 190.841Z" fill="#C92A3C"/>
<path d="M108.096 126.631C74.8242 126.631 55.7614 141.526 44.9619 157.02C47.58 157.429 50.3889 157.456 53.2525 156.939C55.5433 156.53 57.5886 155.877 59.334 155.087C61.6521 154.052 63.1793 152.881 64.6247 151.547C66.0155 150.294 67.5973 149.042 69.2609 147.844C69.8336 147.462 70.4063 147.081 71.0062 146.7C72.9971 145.393 75.2606 144.14 77.6878 142.997C79.7331 142.016 81.9967 141.118 84.3966 140.301C85.4601 139.919 86.5237 139.565 87.6691 139.266C88.6509 138.994 89.8509 138.749 90.7781 138.449C90.8326 138.422 90.9145 138.395 90.9963 138.395C91.7326 138.177 92.5235 138.041 93.2598 137.877C97.9778 136.897 102.041 136.488 104.823 136.352C106.268 136.271 107.359 136.271 108.014 136.271H108.668C108.695 136.271 108.695 136.271 108.695 136.271C109.623 136.298 110.523 136.325 111.395 136.407C111.859 136.434 112.295 136.461 112.759 136.516C115.677 136.761 118.513 137.196 121.186 137.768C127.349 139.075 132.667 141.172 136.376 143.759C138.231 145.066 139.676 146.482 140.658 147.98C140.903 148.361 141.121 148.715 141.258 149.096C139.894 152.418 138.476 155.414 137.003 158.11C136.676 158.681 136.376 159.226 136.049 159.771C135.231 161.132 134.44 162.385 133.594 163.556C128.304 171.071 122.304 174.965 115.677 175.21C110.468 175.401 104.823 173.332 98.7687 169.029C96.2597 167.232 93.6689 165.026 90.9963 162.439L89.8781 162.548C92.0326 169.356 97.9505 174.965 104.959 178.179C107.768 179.458 110.741 180.357 113.741 180.766C113.932 180.793 114.177 180.847 114.395 180.847C114.668 180.874 114.913 180.902 115.186 180.929C115.513 180.956 115.813 180.983 116.113 181.011C116.359 181.011 116.632 181.038 116.932 181.038H117.013C121.977 181.147 127.676 179.84 132.831 177.334C133.458 177.062 134.713 176.245 136.376 175.156C138.04 174.04 140.085 172.624 142.267 171.099C142.267 171.099 142.349 171.071 142.403 170.99C142.703 170.799 143.439 170.309 144.476 169.655C148.076 167.45 155.412 163.501 162.011 163.501C163.866 163.501 165.72 163.637 167.438 163.91C171.229 164.454 174.611 165.598 177.202 167.123C168.066 148.769 148.648 126.631 108.096 126.631Z" fill="#C92A3C"/>
<path d="M108.641 136.271L104.823 136.352C106.978 136.243 108.369 136.271 108.641 136.271Z" fill="#C92A3C"/>
<path d="M102.45 136.488C102.314 136.488 102.232 136.516 102.096 136.543C102.205 136.488 102.314 136.488 102.45 136.488Z" fill="#C92A3C"/>
<path d="M184.783 189.806C184.538 190.16 184.265 190.514 184.019 190.841C183.883 190.977 183.774 191.113 183.638 191.249C164.847 211.808 137.794 224.689 107.714 224.689C77.6331 224.689 50.5797 211.808 31.7896 191.249C31.5987 191.059 31.4351 190.868 31.2715 190.677C31.6806 187.845 34.0532 174.475 42.5892 160.669C44.0891 161.132 45.6981 161.486 47.389 161.731C49.1343 162.003 50.9888 162.14 52.8433 162.14C59.4157 162.14 66.779 158.191 70.3516 155.985C70.9516 155.604 71.4697 155.277 71.8515 155.032C72.097 154.869 72.2879 154.733 72.4242 154.651C72.506 154.597 72.5879 154.542 72.5879 154.542C76.9513 151.52 80.7693 148.905 82.0238 148.306C86.9872 145.91 92.4415 144.603 97.2686 144.603H97.9231C98.2231 144.603 98.4413 144.63 98.7413 144.63C99.0413 144.657 99.3412 144.685 99.6685 144.712C99.9139 144.739 100.187 144.766 100.432 144.794C100.678 144.821 100.923 144.821 101.114 144.875C104.114 145.284 107.086 146.182 109.895 147.462C116.904 150.675 122.822 156.285 124.949 163.093L123.858 163.202C121.186 160.615 118.595 158.409 116.031 156.612C110.032 152.309 104.386 150.24 99.1503 150.43C92.5506 150.675 86.5509 154.569 81.2602 162.085C80.4148 163.256 79.6239 164.536 78.7785 165.87C78.4785 166.415 78.1785 166.959 77.8513 167.531C76.3786 170.2 74.9605 173.195 73.5696 176.517C73.7333 176.926 73.9514 177.28 74.1696 177.661C75.1787 179.159 76.624 180.575 78.4785 181.882C82.1874 184.469 87.5054 186.566 93.6688 187.873C96.3414 188.445 99.1776 188.88 102.068 189.125C102.559 189.152 102.996 189.207 103.432 189.234C104.332 189.289 105.232 189.343 106.159 189.37C106.159 189.37 106.159 189.37 106.186 189.37C106.377 189.398 106.541 189.398 106.705 189.398H107.059C107.195 189.425 107.305 189.425 107.414 189.425C107.932 189.425 108.477 189.398 108.995 189.37C109.323 189.37 109.677 189.343 110.004 189.316H110.032C110.304 189.316 110.55 189.316 110.795 189.289C110.959 189.289 111.123 189.261 111.286 189.261C111.45 189.234 111.613 189.234 111.777 189.234C111.913 189.207 112.077 189.18 112.213 189.18C112.404 189.18 112.568 189.18 112.759 189.153C114.422 189.016 116.086 188.799 117.695 188.526C118.459 188.417 119.195 188.281 119.904 188.145C121.049 187.927 122.195 187.682 123.286 187.41C123.477 187.355 123.64 187.301 123.858 187.246C123.913 187.246 123.995 187.219 124.077 187.192C125.004 186.892 126.176 186.675 127.185 186.375C128.331 186.048 129.394 185.721 130.458 185.34C132.858 184.523 135.121 183.625 137.167 182.644C140.33 181.147 143.112 179.513 145.594 177.77C147.285 176.599 148.812 175.374 150.23 174.094C151.675 172.76 153.203 171.589 155.521 170.554C157.266 169.791 159.311 169.111 161.602 168.702C167.602 167.613 173.383 168.975 177.611 170.962C177.72 171.017 178.265 171.071 179.056 171.153C182.792 179.676 184.265 186.838 184.783 189.806Z" fill="#C92A3C"/>
</g>
</g>
<defs>
<filter id="filter0_d_1491_10176" x="0" y="0" width="216" height="232.689" filterUnits="userSpaceOnUse" color-interpolation-filters="sRGB">
<feFlood flood-opacity="0" result="BackgroundImageFix"/>
<feColorMatrix in="SourceAlpha" type="matrix" values="0 0 0 0 0 0 0 0 0 0 0 0 0 0 0 0 0 0 127 0" result="hardAlpha"/>
<feOffset dy="4"/>
<feGaussianBlur stdDeviation="2"/>
<feComposite in2="hardAlpha" operator="out"/>
<feColorMatrix type="matrix" values="0 0 0 0 0 0 0 0 0 0 0 0 0 0 0 0 0 0 0.25 0"/>
<feBlend mode="normal" in2="BackgroundImageFix" result="effect1_dropShadow_1491_10176"/>
<feBlend mode="normal" in="SourceGraphic" in2="effect1_dropShadow_1491_10176" result="shape"/>
</filter>
<clipPath id="clip0_1491_10176">
<rect width="208" height="207.689" fill="white" transform="translate(4 17)"/>
</clipPath>
</defs>
</svg>
