<svg width="208" height="225" viewBox="0 0 208 225" fill="none" xmlns="http://www.w3.org/2000/svg">
<path d="M103.986 224C161.416 224 207.973 177.514 207.973 120.17C207.973 62.8255 161.416 16.3389 103.986 16.3389C46.5563 16.3389 0 62.8255 0 120.17C0 177.514 46.5563 224 103.986 224Z" fill="#FEC530"/>
<g clip-path="url(#clip0_1491_10113)">
<path d="M103.987 118.489C122.467 118.489 137.449 103.53 137.449 85.0767C137.449 66.6237 122.467 51.6646 103.987 51.6646C85.5059 51.6646 70.5244 66.6237 70.5244 85.0767C70.5244 103.53 85.5059 118.489 103.987 118.489Z" fill="#F84B5F"/>
<path d="M119.285 187.41C118.195 187.682 117.049 187.927 115.904 188.145C116.531 188.036 117.158 187.9 117.758 187.736C118.276 187.655 118.767 187.546 119.285 187.41Z" fill="#191A1D"/>
<path d="M106.004 189.316C105.677 189.343 105.323 189.37 104.995 189.37C104.177 189.398 103.55 189.398 103.059 189.398H102.705L106.004 189.316Z" fill="#191A1D"/>
<path d="M109.713 189.016C110.095 188.962 110.45 188.934 110.804 188.88C110.122 188.962 109.441 189.071 108.759 189.152C108.568 189.179 108.404 189.179 108.213 189.179C108.077 189.179 107.913 189.207 107.777 189.234C107.613 189.234 107.45 189.234 107.286 189.261C107.123 189.261 106.959 189.288 106.795 189.288C106.55 189.316 106.304 189.316 106.032 189.316C106.741 189.288 107.532 189.234 108.377 189.152C108.513 189.152 108.623 189.152 108.759 189.125C109.086 189.098 109.413 189.07 109.713 189.016Z" fill="#191A1D"/>
<path d="M119.286 187.41C118.195 187.682 117.049 187.927 115.904 188.145C115.195 188.281 114.459 188.417 113.695 188.526C113.286 188.608 112.85 188.662 112.44 188.717C112.004 188.771 111.595 188.826 111.159 188.853C111.05 188.88 110.913 188.88 110.804 188.88C111.022 188.853 111.241 188.826 111.459 188.798C113.395 188.553 115.522 188.227 117.786 187.709C118.277 187.655 118.767 187.546 119.286 187.41Z" fill="#191A1D"/>
<path d="M98.4502 136.488C98.3139 136.488 98.2321 136.516 98.0957 136.543C98.2048 136.488 98.3139 136.488 98.4502 136.488Z" fill="#191A1D"/>
<path d="M27.2718 190.678C27.4354 190.868 27.599 191.059 27.7899 191.25H27.1899C27.1899 191.25 27.2172 191.059 27.2718 190.678Z" fill="#191A1D"/>
<path d="M110.805 188.88C111.786 188.771 112.768 188.663 113.695 188.526C113.286 188.608 112.85 188.663 112.441 188.717C112.005 188.771 111.596 188.826 111.159 188.853C111.05 188.853 110.914 188.88 110.805 188.88Z" fill="#191A1D"/>
<path d="M109.714 189.017C110.096 188.962 110.45 188.935 110.805 188.88C110.123 188.962 109.441 189.071 108.759 189.153C108.568 189.18 108.405 189.18 108.214 189.18C108.268 189.18 108.323 189.18 108.378 189.153C108.514 189.153 108.623 189.153 108.759 189.125C109.087 189.098 109.414 189.071 109.714 189.017Z" fill="#191A1D"/>
<path d="M180.019 190.841C179.91 190.977 179.829 191.113 179.72 191.249H179.638C179.774 191.113 179.883 190.977 180.019 190.841Z" fill="#191A1D"/>
<path d="M104.096 126.631C70.8242 126.631 51.7614 141.526 40.9619 157.02C43.58 157.429 46.3889 157.456 49.2525 156.939C51.5433 156.53 53.5886 155.877 55.334 155.087C57.6521 154.052 59.1793 152.881 60.6247 151.547C62.0155 150.294 63.5973 149.042 65.2609 147.844C65.8336 147.462 66.4063 147.081 67.0062 146.7C68.9971 145.393 71.2606 144.14 73.6878 142.997C75.7331 142.016 77.9967 141.118 80.3966 140.301C81.4601 139.919 82.5237 139.565 83.6691 139.266C84.6509 138.994 85.8509 138.749 86.7781 138.449C86.8326 138.422 86.9145 138.395 86.9963 138.395C87.7326 138.177 88.5235 138.041 89.2598 137.877C93.9778 136.897 98.0412 136.488 100.823 136.352C102.268 136.271 103.359 136.271 104.014 136.271H104.668C104.695 136.271 104.695 136.271 104.695 136.271C105.623 136.298 106.523 136.325 107.395 136.407C107.859 136.434 108.295 136.461 108.759 136.516C111.677 136.761 114.513 137.196 117.186 137.768C123.349 139.075 128.667 141.172 132.376 143.759C134.231 145.066 135.676 146.482 136.658 147.98C136.903 148.361 137.121 148.715 137.258 149.096C135.894 152.418 134.476 155.414 133.003 158.11C132.676 158.681 132.376 159.226 132.049 159.771C131.231 161.132 130.44 162.385 129.594 163.556C124.304 171.071 118.304 174.965 111.677 175.21C106.468 175.401 100.823 173.332 94.7687 169.029C92.2597 167.232 89.6689 165.026 86.9963 162.439L85.8781 162.548C88.0326 169.356 93.9505 174.965 100.959 178.179C103.768 179.458 106.741 180.357 109.741 180.766C109.932 180.793 110.177 180.847 110.395 180.847C110.668 180.874 110.913 180.902 111.186 180.929C111.513 180.956 111.813 180.983 112.113 181.011C112.359 181.011 112.632 181.038 112.932 181.038H113.013C117.977 181.147 123.676 179.84 128.831 177.334C129.458 177.062 130.713 176.245 132.376 175.156C134.04 174.04 136.085 172.624 138.267 171.099C138.267 171.099 138.349 171.071 138.403 170.99C138.703 170.799 139.439 170.309 140.476 169.655C144.076 167.45 151.412 163.501 158.011 163.501C159.866 163.501 161.72 163.637 163.438 163.91C167.229 164.454 170.611 165.598 173.202 167.123C164.066 148.769 144.648 126.631 104.096 126.631Z" fill="#F84B5F"/>
<path d="M104.641 136.271L100.823 136.352C102.978 136.243 104.369 136.271 104.641 136.271Z" fill="#191A1D"/>
<path d="M98.4502 136.488C98.3139 136.488 98.2321 136.516 98.0957 136.543C98.2048 136.488 98.3139 136.488 98.4502 136.488Z" fill="#191A1D"/>
<path d="M180.783 189.806C180.538 190.16 180.265 190.514 180.019 190.841C179.883 190.977 179.774 191.113 179.638 191.249C160.847 211.808 133.794 224.689 103.714 224.689C73.6331 224.689 46.5797 211.808 27.7896 191.249C27.5987 191.059 27.4351 190.868 27.2715 190.677C27.6806 187.845 30.0532 174.475 38.5892 160.669C40.0891 161.132 41.6981 161.486 43.389 161.731C45.1343 162.003 46.9888 162.14 48.8433 162.14C55.4157 162.14 62.779 158.191 66.3516 155.985C66.9516 155.604 67.4697 155.277 67.8515 155.032C68.097 154.869 68.2879 154.733 68.4242 154.651C68.506 154.597 68.5879 154.542 68.5879 154.542C72.9513 151.52 76.7693 148.905 78.0238 148.306C82.9872 145.91 88.4415 144.603 93.2686 144.603H93.9231C94.2231 144.603 94.4413 144.63 94.7413 144.63C95.0413 144.657 95.3412 144.685 95.6685 144.712C95.9139 144.739 96.1867 144.766 96.4321 144.794C96.6775 144.821 96.923 144.821 97.1139 144.875C100.114 145.284 103.086 146.182 105.895 147.462C112.904 150.675 118.822 156.285 120.949 163.093L119.858 163.202C117.186 160.615 114.595 158.409 112.031 156.612C106.032 152.309 100.386 150.24 95.1503 150.43C88.5506 150.675 82.5509 154.569 77.2602 162.085C76.4148 163.256 75.6239 164.536 74.7785 165.87C74.4785 166.415 74.1785 166.959 73.8513 167.531C72.3786 170.2 70.9605 173.195 69.5696 176.517C69.7333 176.926 69.9514 177.28 70.1696 177.661C71.1787 179.159 72.624 180.575 74.4785 181.882C78.1874 184.469 83.5054 186.566 89.6688 187.873C92.3414 188.445 95.1776 188.88 98.0684 189.125C98.5593 189.152 98.9956 189.207 99.432 189.234C100.332 189.289 101.232 189.343 102.159 189.37C102.159 189.37 102.159 189.37 102.186 189.37C102.377 189.398 102.541 189.398 102.705 189.398H103.059C103.195 189.425 103.305 189.425 103.414 189.425C103.932 189.425 104.477 189.398 104.995 189.37C105.323 189.37 105.677 189.343 106.004 189.316H106.032C106.304 189.316 106.55 189.316 106.795 189.289C106.959 189.289 107.123 189.261 107.286 189.261C107.45 189.234 107.613 189.234 107.777 189.234C107.913 189.207 108.077 189.18 108.213 189.18C108.404 189.18 108.568 189.18 108.759 189.153C110.422 189.016 112.086 188.799 113.695 188.526C114.459 188.417 115.195 188.281 115.904 188.145C117.049 187.927 118.195 187.682 119.286 187.41C119.477 187.355 119.64 187.301 119.858 187.246C119.913 187.246 119.995 187.219 120.077 187.192C121.004 186.892 122.176 186.675 123.185 186.375C124.331 186.048 125.394 185.721 126.458 185.34C128.858 184.523 131.121 183.625 133.167 182.644C136.33 181.147 139.112 179.513 141.594 177.77C143.285 176.599 144.812 175.374 146.23 174.094C147.675 172.76 149.203 171.589 151.521 170.554C153.266 169.791 155.311 169.111 157.602 168.702C163.602 167.613 169.383 168.975 173.611 170.962C173.72 171.017 174.265 171.071 175.056 171.153C178.792 179.676 180.265 186.838 180.783 189.806Z" fill="#F84B5F"/>
</g>
<defs>
<clipPath id="clip0_1491_10113">
<rect width="208" height="207.689" fill="white" transform="translate(0 17)"/>
</clipPath>
</defs>
</svg>
