<svg width="27" height="25" viewBox="0 0 27 25" fill="none" xmlns="http://www.w3.org/2000/svg">
<path d="M13.5 11.7646C16.7486 11.7646 19.3822 9.13097 19.3822 5.88228C19.3822 2.63359 16.7486 0 13.5 0C10.2513 0 7.61768 2.63359 7.61768 5.88228C7.61768 9.13097 10.2513 11.7646 13.5 11.7646Z" fill="#666666"/>
<path d="M16.1897 23.8979C15.9979 23.9459 15.8014 23.989 15.5952 24.0322C15.7055 24.0082 15.8157 23.9842 15.9212 23.9603C16.0123 23.9363 16.0986 23.9171 16.1897 23.8979Z" fill="#666666"/>
<path d="M13.1836 24.2434L13.8548 24.229C13.476 24.253 13.2363 24.2482 13.1836 24.2434Z" fill="#666666"/>
<path d="M16.1893 23.8979C15.9975 23.9459 15.801 23.989 15.5948 24.0322C15.1969 24.1089 14.775 24.1664 14.3388 24.2048C14.31 24.2096 14.2765 24.2096 14.2477 24.2144C14.2189 24.2144 14.195 24.2192 14.1662 24.2192C14.1135 24.2239 14.0511 24.2287 13.9936 24.2335H13.8594C14.3532 24.2096 15.0819 24.1377 15.9208 23.9603C16.0119 23.9363 16.0982 23.9171 16.1893 23.8979Z" fill="#666666"/>
<path d="M12.5219 14.9282C12.4979 14.9282 12.4835 14.933 12.4596 14.9378C12.4835 14.933 12.5027 14.933 12.5219 14.9282Z" fill="#666666"/>
<path d="M27 24.3199C26.9377 24.4062 26.8754 24.4925 26.813 24.574H0C0 24.574 0.311612 21.9325 2.00391 19.1903C2.26758 19.2718 2.55043 19.3341 2.84766 19.3773C3.15447 19.4252 3.48047 19.4492 3.80646 19.4492C4.96183 19.4492 6.25621 18.754 6.88423 18.3657C6.9897 18.2986 7.08079 18.2411 7.1479 18.1979C7.19105 18.1692 7.22461 18.1452 7.24858 18.1308C7.26296 18.1212 7.27734 18.1116 7.27734 18.1116C8.04439 17.5795 8.71555 17.1193 8.93608 17.0138C9.80859 16.5919 10.7674 16.3618 11.6159 16.3618H11.731C11.7837 16.3618 11.8221 16.3666 11.8748 16.3666C11.9276 16.3714 11.9803 16.3762 12.0378 16.381C12.081 16.3858 12.1289 16.3906 12.1721 16.3954C12.2152 16.4002 12.2583 16.4002 12.2919 16.4098C12.8192 16.4817 13.3418 16.6399 13.8356 16.8652C15.0676 17.4309 16.108 18.4185 16.4819 19.617L16.2901 19.6361C15.8203 19.1807 15.3649 18.7924 14.9142 18.476C13.8596 17.7185 12.8672 17.3542 11.9467 17.3877C10.7866 17.4309 9.73189 18.1164 8.80185 19.4396C8.65323 19.6457 8.5142 19.871 8.36559 20.106C8.31286 20.2018 8.26012 20.2977 8.20259 20.3984C7.94371 20.8682 7.69442 21.3956 7.44993 21.9804C7.47869 22.0523 7.51705 22.1147 7.5554 22.1818C7.73278 22.4454 7.98686 22.6947 8.31285 22.9248C8.96484 23.3803 9.89968 23.7494 10.9831 23.9795C11.4529 24.0802 11.9515 24.1569 12.4597 24.2001C12.546 24.2049 12.6227 24.2144 12.6994 24.2192C12.8576 24.2288 13.0158 24.2384 13.1788 24.2432C13.1788 24.2432 13.1788 24.2432 13.1836 24.2432C13.2363 24.248 13.2891 24.248 13.337 24.248C13.361 24.2528 13.3801 24.2528 13.3993 24.2528C13.6007 24.248 13.802 24.2432 13.9938 24.2288C14.0225 24.2288 14.0513 24.224 14.0801 24.224C14.1088 24.2192 14.1376 24.2192 14.1664 24.2192C14.1903 24.2144 14.2191 24.2096 14.2431 24.2096C14.2766 24.2096 14.3054 24.2049 14.339 24.2001C14.3965 24.1953 14.454 24.1905 14.5067 24.1809C14.6697 24.1665 14.8279 24.1473 14.9862 24.1282C15.1923 24.0994 15.3984 24.0658 15.595 24.0275C15.7963 23.9891 15.9977 23.946 16.1895 23.898C16.223 23.8884 16.2518 23.8789 16.2901 23.8693C16.2997 23.8693 16.3141 23.8645 16.3285 23.8597C16.4915 23.807 16.6976 23.7686 16.875 23.7159C17.0763 23.6583 17.2633 23.6008 17.4503 23.5337C17.8722 23.3899 18.2701 23.2317 18.6296 23.0591C19.1857 22.7954 19.6747 22.5078 20.111 22.201C20.4082 21.9948 20.6767 21.7791 20.926 21.5538C21.18 21.3188 21.4485 21.1127 21.856 20.9305C22.1628 20.7963 22.5224 20.6764 22.9251 20.6045C23.9798 20.4128 24.9961 20.6525 25.7392 21.0024C25.7583 21.012 25.8542 21.0216 25.9933 21.036C26.65 22.5365 26.9089 23.7974 27 24.3199Z" fill="#666666"/>
<path d="M13.5191 13.1978C7.67037 13.1978 4.31934 15.8201 2.4209 18.5479C2.88113 18.6198 3.37491 18.6246 3.87828 18.5335C4.28098 18.4616 4.64054 18.3465 4.94735 18.2075C5.35485 18.0253 5.62331 17.8192 5.8774 17.5843C6.12189 17.3638 6.39995 17.1432 6.69238 16.9323C6.79306 16.8652 6.89373 16.7981 6.9992 16.731C7.34917 16.5008 7.74707 16.2803 8.17374 16.079C8.53329 15.9064 8.9312 15.7482 9.35307 15.6044C9.54004 15.5372 9.72701 15.4749 9.92836 15.4222C10.1009 15.3742 10.3119 15.3311 10.4749 15.2784C10.4845 15.2736 10.4988 15.2688 10.5132 15.2688C10.6427 15.2304 10.7817 15.2065 10.9111 15.1777C11.7405 15.0051 12.4548 14.9332 12.9438 14.9092C13.1979 14.8948 13.3896 14.8948 13.5047 14.8948H13.6198C13.6246 14.8948 13.6246 14.8948 13.6246 14.8948C13.7876 14.8996 13.9458 14.9044 14.0992 14.9188C14.1807 14.9236 14.2574 14.9284 14.3389 14.938C14.8518 14.9811 15.3504 15.0578 15.8202 15.1585C16.9037 15.3886 17.8385 15.7578 18.4905 16.2132C18.8165 16.4433 19.0706 16.6926 19.2432 16.9563C19.2863 17.0234 19.3247 17.0857 19.3486 17.1528C19.1089 17.7377 18.8596 18.265 18.6008 18.7397C18.5432 18.8403 18.4905 18.9362 18.433 19.0321C18.2892 19.2718 18.1501 19.4923 18.0015 19.6985C17.0715 21.0216 16.0168 21.7072 14.8518 21.7503C13.9362 21.7839 12.9438 21.4195 11.8795 20.6621C11.4385 20.3457 10.983 19.9573 10.5132 19.5019L10.3167 19.5211C10.6954 20.7196 11.7357 21.7072 12.9678 22.2729C13.4616 22.4982 13.9841 22.6564 14.5115 22.7283C14.545 22.7331 14.5882 22.7427 14.6265 22.7427C14.6744 22.7475 14.7176 22.7523 14.7655 22.7571C14.8231 22.7619 14.8758 22.7666 14.9285 22.7714C14.9717 22.7714 15.0196 22.7762 15.0724 22.7762H15.0867C15.9593 22.7954 16.9612 22.5653 17.8673 22.1242C17.9775 22.0763 18.1981 21.9325 18.4905 21.7407C18.7829 21.5442 19.1425 21.2949 19.526 21.0264C19.526 21.0264 19.5404 21.0216 19.55 21.0072C19.6027 20.9737 19.7322 20.8874 19.9143 20.7723C20.5471 20.384 21.8367 19.6889 22.9969 19.6889C23.3229 19.6889 23.6489 19.7128 23.9509 19.7608C24.6173 19.8567 25.2117 20.058 25.6672 20.3265C24.0612 17.0953 20.6478 13.1978 13.5191 13.1978Z" fill="#666666"/>
<path d="M13.615 14.8951L12.9438 14.9094C13.3226 14.8903 13.5671 14.8951 13.615 14.8951Z" fill="#666666"/>
<path d="M12.5219 14.9282C12.4979 14.9282 12.4835 14.933 12.4596 14.9378C12.4835 14.933 12.5027 14.933 12.5219 14.9282Z" fill="#666666"/>
</svg>
