<svg width="18" height="23" viewBox="0 0 18 23" fill="none" xmlns="http://www.w3.org/2000/svg">
<path d="M10.976 18.0693C10.8409 18.1475 10.6987 18.2139 10.5542 18.2755C10.6324 18.24 10.7106 18.2044 10.7864 18.1618C10.8504 18.1357 10.9144 18.1049 10.976 18.0693Z" fill="#666666"/>
<path d="M8.85059 18.6189L9.32689 18.5952C9.05912 18.626 8.88613 18.6213 8.85059 18.6189Z" fill="#666666"/>
<path d="M10.9764 18.0693C10.8413 18.1475 10.6991 18.2139 10.5546 18.2755C10.2726 18.394 9.97399 18.4888 9.66594 18.548C9.64461 18.5551 9.62091 18.5575 9.59959 18.5599C9.58063 18.5622 9.56167 18.567 9.54272 18.5693C9.5048 18.5764 9.46215 18.5812 9.41949 18.5883L9.32471 18.5907C9.67305 18.5504 10.192 18.439 10.7844 18.1594C10.8508 18.1357 10.9148 18.1049 10.9764 18.0693Z" fill="#666666"/>
<path d="M8.3813 3.98389C8.36471 3.98626 8.35286 3.99337 8.33627 3.99573C8.27229 4.00521 8.21305 4.0218 8.15381 4.03365C8.21305 4.01706 8.27229 4.00521 8.33627 3.99337C8.35523 3.98863 8.36708 3.98626 8.3813 3.98389Z" fill="#666666"/>
<path d="M17.7393 13.5216C17.8199 13.6093 17.8957 13.697 17.9645 13.7894C17.9242 15.4102 17.455 16.9268 16.6635 18.2278C15.9953 19.3368 15.09 20.2823 14.0213 21.0074C13.6469 21.2586 13.2512 21.4884 12.8412 21.6827C11.8697 22.1448 10.7962 22.4387 9.66588 22.5192C9.62559 22.5216 9.58531 22.5287 9.54265 22.5287C9.36256 22.5406 9.18483 22.5477 9 22.5453C8.83649 22.5453 8.67062 22.5429 8.50711 22.5335C8.45024 22.5311 8.3981 22.524 8.33649 22.5216C7.20616 22.441 6.13744 22.1472 5.15877 21.6827C4.87915 21.55 4.61137 21.4031 4.34834 21.242C4.23223 21.1709 4.11611 21.0998 4 21.0169C1.609 19.4055 0.0355445 16.6662 0.0355445 13.5595C0.0355445 13.3605 0.0450232 13.1662 0.0568715 12.9718L0 11.3083V11.3012L0.0450234 10.0263C0.047393 10.0287 0.0521321 10.0358 0.0521321 10.0382L0.0639812 9.71118C0.409953 10.3202 0.92417 10.7799 1.53081 10.9742C1.74645 11.05 1.9763 11.0832 2.20853 11.0832C3.02607 11.0832 3.94313 9.99317 4.38863 9.3818C4.46446 9.27753 4.52607 9.18986 4.57346 9.12113C4.60427 9.07374 4.63033 9.03583 4.64455 9.01213C4.65403 8.99554 4.66351 8.98369 4.66351 8.98369C5.20616 8.14483 5.68483 7.42208 5.83886 7.26331V7.26094C6.48341 6.569 7.18957 6.20881 7.80806 6.23962H7.81754C7.85545 6.23962 7.88389 6.24199 7.9218 6.24673C7.95972 6.25383 7.99763 6.25857 8.03555 6.26568C8.06635 6.27279 8.1019 6.28227 8.1327 6.29175C8.16351 6.29412 8.19194 6.30123 8.21801 6.31071C8.59242 6.42682 8.96209 6.67801 9.31043 7.03346C10.1825 7.91971 10.9194 9.47422 11.1825 11.3557L11.0474 11.3842C10.7156 10.6685 10.3934 10.0595 10.0735 9.56189C9.32701 8.36758 8.62322 7.79886 7.97156 7.85336C7.14929 7.91971 6.40521 8.99554 5.74408 11.0737C5.63981 11.3984 5.54028 11.7515 5.43602 12.1235C5.3981 12.2704 5.36019 12.4245 5.3199 12.5832C5.13744 13.3249 4.95972 14.1543 4.78673 15.0737C4.80806 15.1804 4.83412 15.2846 4.86256 15.3889C4.98815 15.8012 5.16825 16.197 5.40047 16.5572C5.86256 17.2728 6.52133 17.8534 7.29147 18.2159C7.62322 18.3723 7.9763 18.4884 8.33649 18.5619C8.39573 18.569 8.45024 18.5809 8.50711 18.5903C8.61611 18.6069 8.72986 18.6188 8.84597 18.6306C8.84597 18.6306 8.84597 18.6306 8.84834 18.6306C8.89811 18.6377 8.95261 18.6401 9.00237 18.6425C9.14455 18.6354 9.28436 18.6235 9.41943 18.6022C9.46445 18.5998 9.50474 18.5903 9.54265 18.5856C9.56161 18.5832 9.58057 18.5761 9.59953 18.5737C9.62085 18.5714 9.64455 18.5666 9.66588 18.5619C9.97393 18.5027 10.2725 18.4079 10.5545 18.2894C10.6991 18.2254 10.8412 18.1614 10.9763 18.0832C11.0024 18.0714 11.0237 18.0548 11.0474 18.0429C11.0545 18.0406 11.0664 18.0358 11.0758 18.0311C11.1919 17.9458 11.3365 17.8842 11.4621 17.806C11.6043 17.7159 11.7346 17.6211 11.8697 17.5169C12.1682 17.2941 12.4479 17.0406 12.7062 16.7704C13.0995 16.3581 13.4431 15.9031 13.7512 15.4268C13.9621 15.0974 14.154 14.7586 14.3294 14.4102C14.5118 14.0429 14.6991 13.7159 14.9882 13.4268C15.2038 13.2159 15.4597 13.0287 15.7441 12.9173C16.4953 12.5974 17.2156 12.9718 17.7393 13.5216Z" fill="#666666"/>
<path d="M2.26069 9.64492C2.54742 9.53117 2.80098 9.34634 3.01662 9.13307C3.30572 8.84634 3.49292 8.51695 3.67538 8.15203C3.84837 7.80368 4.04505 7.46008 4.25358 7.12833C4.3223 7.02169 4.39576 6.91506 4.46922 6.81079C4.71804 6.44586 4.99766 6.10463 5.29861 5.78473C5.5569 5.51459 5.83652 5.2634 6.1351 5.03828C6.2678 4.93876 6.40287 4.83923 6.54268 4.75629C6.6659 4.67809 6.81283 4.61411 6.92894 4.52643C6.93605 4.52406 6.9479 4.51458 6.95737 4.50985C7.04742 4.45534 7.14695 4.41506 7.23937 4.36766C7.82467 4.09752 8.33178 3.98852 8.67775 3.94586C8.94553 3.91506 9.11851 3.9198 9.15169 3.9198H9.15406C9.15643 3.9198 9.15643 3.9198 9.15643 3.9198C9.27254 3.92928 9.38629 3.94112 9.49292 3.96008C9.55216 3.96956 9.60666 3.97904 9.66354 3.99089C10.0285 4.05961 10.3792 4.17572 10.7133 4.33212C11.4834 4.69231 12.1422 5.27762 12.6043 5.99089C12.8365 6.35108 13.0166 6.74681 13.1375 7.15913C13.1683 7.2634 13.1943 7.3653 13.2133 7.46956C13.0427 8.38899 12.865 9.21838 12.6825 9.96245C12.6422 10.1189 12.6043 10.2729 12.564 10.4245C12.4645 10.7942 12.3626 11.1449 12.2583 11.4672C11.5996 13.5501 10.8555 14.6236 10.0285 14.6899C9.37918 14.7468 8.67775 14.1757 7.9242 12.9838C7.60903 12.4838 7.28913 11.8724 6.95737 11.1591L6.81993 11.1876C7.08771 13.0691 7.8223 14.6236 8.69434 15.5098C9.04268 15.8677 9.41472 16.1117 9.78676 16.2326C9.81283 16.2397 9.84126 16.2516 9.86733 16.2539C9.90287 16.261 9.93368 16.2705 9.96685 16.2729C10.0048 16.2824 10.0427 16.2918 10.0806 16.2942C10.1114 16.2966 10.1469 16.3037 10.1849 16.3037H10.1943C10.8128 16.3321 11.519 15.9719 12.1635 15.28V15.2776C12.3176 15.1212 12.7939 14.3985 13.3389 13.5572C13.3389 13.5572 13.3484 13.5454 13.3555 13.5288C13.3934 13.4696 13.4834 13.3369 13.6138 13.1591C14.064 12.5501 14.9763 11.4577 15.7962 11.4577C16.0285 11.4577 16.2583 11.4956 16.4716 11.5715C17.0735 11.7658 17.5948 12.2207 17.9384 12.8345L17.9503 12.5051C17.9503 12.5122 17.9574 12.5146 17.9597 12.517L18 11.2397L17.9455 9.56909C17.9574 9.37714 17.9669 9.18283 17.9669 8.98852C17.9669 5.87951 16.391 3.14018 14.0024 1.5288C13.6327 1.27999 13.2465 1.05487 12.8436 0.862925C11.8602 0.39847 10.7915 0.102261 9.66117 0.0240623C9.60429 0.0216927 9.55216 0.0169535 9.49055 0.0122142C9.32941 0.00510516 9.16354 0.000365548 8.99766 0.000365548C8.8152 -0.00200412 8.63747 0.00747454 8.45737 0.0193229C8.41709 0.0193229 8.37207 0.0216926 8.33178 0.0216926C7.20145 0.102261 6.13036 0.3961 5.15643 0.860556C4.83178 1.01458 4.51899 1.18994 4.2133 1.38425C4.1351 1.43402 4.0569 1.48378 3.9787 1.53828C2.90998 2.26103 2.0024 3.2089 1.33415 4.3179C0.545051 5.61411 0.0782268 7.13544 0.0332031 8.75629C0.104293 8.84634 0.180122 8.93639 0.26306 9.01932C0.793866 9.56909 1.51425 9.9435 2.26069 9.64492ZM8.33889 3.99326C8.35548 3.99089 8.36733 3.98615 8.38392 3.98378C8.36733 3.98615 8.35548 3.99326 8.33889 3.99563C8.27491 4.00511 8.21567 4.02169 8.15643 4.03354C8.21567 4.01695 8.27491 4.00511 8.33889 3.99326Z" fill="#666666"/>
<path d="M9.15655 3.92214L8.68262 3.9482C8.94802 3.9174 9.12101 3.92214 9.15655 3.92214Z" fill="#666666"/>
<path d="M8.3813 3.98389C8.36471 3.98626 8.35286 3.99337 8.33627 3.99573C8.27229 4.00521 8.21305 4.0218 8.15381 4.03365C8.21305 4.01706 8.27229 4.00521 8.33627 3.99337C8.35523 3.98863 8.36708 3.98626 8.3813 3.98389Z" fill="#666666"/>
</svg>
